# xmcd CD database file
#
# Track frame offsets:
#	225
#	21400
#	34260
#	47463
#	62372
#	74450
#	88268
#	103036
#	119265
#	132738
#	147365
#	162024
#	182072
#	195890
#	212439
#	223916
#	235422
#
# Disc length: 3350 seconds
#
# Revision: 0
# Processed by: cddbd v1.5.2PL0 Copyright (c) Steve Scherf et al.
# Submitted via: CDex 1.70beta2
#
DISCID=fb0d1311
DTITLE=Honza Vyčítal - V Baru Zlatá Praha
DYEAR=1900
DGENRE=Country
TTITLE0=V Baru Zlatá Praha
TTITLE1=Sentimentální cesta
TTITLE2=Pravda pravdoucí
TTITLE3=Prázdná náruč
TTITLE4=Mladší holky, lepší džípy
TTITLE5=Veterán
TTITLE6=Zálesácká bowle
TTITLE7=Vás chci pozdravit bráchové Mašínové
TTITLE8=Miláčku vrať se a sjedem to znova
TTITLE9=Dům u vycházejícího slunce
TTITLE10=nemám, co bych Ti nabídl
TTITLE11=Když se čas naplnil
TTITLE12=Ja-Da
TTITLE13=kocour prospektor
TTITLE14=Dlouhý černý závoj
TTITLE15=Vem mě k vám
TTITLE16=V Baru Zlatá Praha (radioverze)
EXTD=
EXTT0=
EXTT1=
EXTT2=
EXTT3=
EXTT4=
EXTT5=
EXTT6=
EXTT7=
EXTT8=
EXTT9=
EXTT10=
EXTT11=
EXTT12=
EXTT13=
EXTT14=
EXTT15=
EXTT16=
PLAYORDER=
